 <svg width="315" height="569" viewBox="0 0 315 569" fill="none" xmlns="http://www.w3.org/2000/svg">
            <g filter="url(#filter0_d_259_637)">
            <rect x="101" y="56" width="80" height="80" rx="22" transform="rotate(-44 101 56)" fill="white"/>
            </g>
            <g filter="url(#filter1_d_259_637)">
            <rect x="101" y="504" width="80" height="80" rx="22" transform="rotate(-44 101 504)" fill="white"/>
            </g>
            <g filter="url(#filter2_d_259_637)">
            <rect x="12" y="165" width="291" height="232" rx="22" fill="#F2F8FD"/>
            </g>
            <rect x="32" y="186" width="251" height="54" rx="12" fill="#5CE1E6"/>
            <rect x="32" y="322" width="251" height="54" rx="12" fill="#5CE1E6"/>
            <g filter="url(#filter3_d_259_637)">
            <rect x="91" y="254" width="192" height="54" rx="12" fill="white"/>
            </g>
            <path d="M56.732 354.168C56.0787 354.168 55.472 354.047 54.912 353.804C54.352 353.552 53.876 353.211 53.484 352.782C53.092 352.353 52.8027 351.858 52.616 351.298L54.016 350.71C54.268 351.354 54.6367 351.849 55.122 352.194C55.6073 352.539 56.1673 352.712 56.802 352.712C57.1753 352.712 57.502 352.656 57.782 352.544C58.062 352.423 58.2767 352.255 58.426 352.04C58.5847 351.825 58.664 351.578 58.664 351.298C58.664 350.915 58.5567 350.612 58.342 350.388C58.1273 350.164 57.81 349.987 57.39 349.856L55.43 349.24C54.646 348.997 54.0487 348.629 53.638 348.134C53.2273 347.63 53.022 347.042 53.022 346.37C53.022 345.782 53.1667 345.269 53.456 344.83C53.7453 344.382 54.142 344.032 54.646 343.78C55.1593 343.528 55.7427 343.402 56.396 343.402C57.0213 343.402 57.5907 343.514 58.104 343.738C58.6173 343.953 59.056 344.251 59.42 344.634C59.7933 345.017 60.064 345.46 60.232 345.964L58.86 346.566C58.6547 346.015 58.3327 345.591 57.894 345.292C57.4647 344.993 56.9653 344.844 56.396 344.844C56.0507 344.844 55.7473 344.905 55.486 345.026C55.2247 345.138 55.0193 345.306 54.87 345.53C54.73 345.745 54.66 345.997 54.66 346.286C54.66 346.622 54.7673 346.921 54.982 347.182C55.1967 347.443 55.5233 347.639 55.962 347.77L57.782 348.344C58.6127 348.596 59.238 348.96 59.658 349.436C60.078 349.903 60.288 350.486 60.288 351.186C60.288 351.765 60.134 352.278 59.826 352.726C59.5273 353.174 59.112 353.529 58.58 353.79C58.048 354.042 57.432 354.168 56.732 354.168ZM64.6905 354.168C64.1211 354.168 63.6218 354.042 63.1925 353.79C62.7631 353.529 62.4271 353.169 62.1845 352.712C61.9511 352.245 61.8345 351.709 61.8345 351.102V346.426H63.4165V350.962C63.4165 351.307 63.4865 351.611 63.6265 351.872C63.7665 352.133 63.9625 352.339 64.2145 352.488C64.4665 352.628 64.7558 352.698 65.0825 352.698C65.4185 352.698 65.7125 352.623 65.9645 352.474C66.2165 352.325 66.4125 352.115 66.5525 351.844C66.7018 351.573 66.7765 351.256 66.7765 350.892V346.426H68.3445V354H66.8465V352.516L67.0145 352.712C66.8371 353.179 66.5431 353.538 66.1325 353.79C65.7218 354.042 65.2411 354.168 64.6905 354.168ZM70.1916 354V346.426H71.7036V347.952L71.5636 347.728C71.7316 347.233 72.0022 346.879 72.3756 346.664C72.7489 346.44 73.1969 346.328 73.7196 346.328H74.1816V347.77H73.5236C73.0009 347.77 72.5762 347.933 72.2496 348.26C71.9322 348.577 71.7736 349.035 71.7736 349.632V354H70.1916ZM78.8198 354.168C78.0638 354.168 77.3918 353.995 76.8038 353.65C76.2252 353.295 75.7725 352.819 75.4458 352.222C75.1192 351.615 74.9558 350.939 74.9558 350.192C74.9558 349.427 75.1192 348.75 75.4458 348.162C75.7818 347.574 76.2298 347.112 76.7898 346.776C77.3498 346.431 77.9845 346.258 78.6938 346.258C79.2632 346.258 79.7718 346.356 80.2198 346.552C80.6678 346.748 81.0458 347.019 81.3538 347.364C81.6618 347.7 81.8952 348.087 82.0538 348.526C82.2218 348.965 82.3058 349.431 82.3058 349.926C82.3058 350.047 82.3012 350.173 82.2918 350.304C82.2825 350.435 82.2638 350.556 82.2358 350.668H76.2018V349.408H81.3398L80.5838 349.982C80.6772 349.525 80.6445 349.119 80.4858 348.764C80.3365 348.4 80.1032 348.115 79.7858 347.91C79.4778 347.695 79.1138 347.588 78.6938 347.588C78.2738 347.588 77.9005 347.695 77.5738 347.91C77.2472 348.115 76.9952 348.414 76.8178 348.806C76.6405 349.189 76.5705 349.655 76.6078 350.206C76.5612 350.719 76.6312 351.167 76.8178 351.55C77.0138 351.933 77.2845 352.231 77.6298 352.446C77.9845 352.661 78.3858 352.768 78.8338 352.768C79.2912 352.768 79.6785 352.665 79.9958 352.46C80.3225 352.255 80.5792 351.989 80.7658 351.662L82.0538 352.292C81.9045 352.647 81.6712 352.969 81.3538 353.258C81.0458 353.538 80.6725 353.762 80.2338 353.93C79.8045 354.089 79.3332 354.168 78.8198 354.168ZM84.6198 350.892L84.5078 343.57H86.1178L86.0198 350.892H84.6198ZM84.5078 354V352.18H86.1178V354H84.5078ZM91.3065 350.906V349.506H96.9065V350.906H91.3065ZM104.441 347.14V345.95C104.441 345.269 104.6 344.709 104.917 344.27C105.244 343.822 105.715 343.533 106.331 343.402V344.172C106.033 344.247 105.799 344.387 105.631 344.592C105.463 344.788 105.361 345.031 105.323 345.32H106.051V347.14H104.441ZM101.851 347.14V345.95C101.851 345.269 102.01 344.709 102.327 344.27C102.654 343.822 103.125 343.533 103.741 343.402V344.172C103.443 344.247 103.209 344.387 103.041 344.592C102.873 344.788 102.771 345.031 102.733 345.32H103.461V347.14H101.851ZM108.777 354V343.57H110.429V348.162H115.259V343.57H116.897V354H115.259V349.632H110.429V354H108.777ZM122.46 354.168C121.704 354.168 121.032 353.995 120.444 353.65C119.866 353.295 119.413 352.819 119.086 352.222C118.76 351.615 118.596 350.939 118.596 350.192C118.596 349.427 118.76 348.75 119.086 348.162C119.422 347.574 119.87 347.112 120.43 346.776C120.99 346.431 121.625 346.258 122.334 346.258C122.904 346.258 123.412 346.356 123.86 346.552C124.308 346.748 124.686 347.019 124.994 347.364C125.302 347.7 125.536 348.087 125.694 348.526C125.862 348.965 125.946 349.431 125.946 349.926C125.946 350.047 125.942 350.173 125.932 350.304C125.923 350.435 125.904 350.556 125.876 350.668H119.842V349.408H124.98L124.224 349.982C124.318 349.525 124.285 349.119 124.126 348.764C123.977 348.4 123.744 348.115 123.426 347.91C123.118 347.695 122.754 347.588 122.334 347.588C121.914 347.588 121.541 347.695 121.214 347.91C120.888 348.115 120.636 348.414 120.458 348.806C120.281 349.189 120.211 349.655 120.248 350.206C120.202 350.719 120.272 351.167 120.458 351.55C120.654 351.933 120.925 352.231 121.27 352.446C121.625 352.661 122.026 352.768 122.474 352.768C122.932 352.768 123.319 352.665 123.636 352.46C123.963 352.255 124.22 351.989 124.406 351.662L125.694 352.292C125.545 352.647 125.312 352.969 124.994 353.258C124.686 353.538 124.313 353.762 123.874 353.93C123.445 354.089 122.974 354.168 122.46 354.168ZM127.49 354V346.426H129.002V347.952L128.862 347.728C129.03 347.233 129.301 346.879 129.674 346.664C130.048 346.44 130.496 346.328 131.018 346.328H131.48V347.77H130.822C130.3 347.77 129.875 347.933 129.548 348.26C129.231 348.577 129.072 349.035 129.072 349.632V354H127.49ZM136.119 354.168C135.363 354.168 134.691 353.995 134.103 353.65C133.524 353.295 133.071 352.819 132.745 352.222C132.418 351.615 132.255 350.939 132.255 350.192C132.255 349.427 132.418 348.75 132.745 348.162C133.081 347.574 133.529 347.112 134.089 346.776C134.649 346.431 135.283 346.258 135.993 346.258C136.562 346.258 137.071 346.356 137.519 346.552C137.967 346.748 138.345 347.019 138.653 347.364C138.961 347.7 139.194 348.087 139.353 348.526C139.521 348.965 139.605 349.431 139.605 349.926C139.605 350.047 139.6 350.173 139.591 350.304C139.581 350.435 139.563 350.556 139.535 350.668H133.501V349.408H138.639L137.883 349.982C137.976 349.525 137.943 349.119 137.785 348.764C137.635 348.4 137.402 348.115 137.085 347.91C136.777 347.695 136.413 347.588 135.993 347.588C135.573 347.588 135.199 347.695 134.873 347.91C134.546 348.115 134.294 348.414 134.117 348.806C133.939 349.189 133.869 349.655 133.907 350.206C133.86 350.719 133.93 351.167 134.117 351.55C134.313 351.933 134.583 352.231 134.929 352.446C135.283 352.661 135.685 352.768 136.133 352.768C136.59 352.768 136.977 352.665 137.295 352.46C137.621 352.255 137.878 351.989 138.065 351.662L139.353 352.292C139.203 352.647 138.97 352.969 138.653 353.258C138.345 353.538 137.971 353.762 137.533 353.93C137.103 354.089 136.632 354.168 136.119 354.168ZM143.75 354V343.57H145.402V354H143.75ZM150.21 354.168C149.436 354.168 148.754 353.977 148.166 353.594C147.588 353.211 147.182 352.698 146.948 352.054L148.166 351.48C148.372 351.909 148.652 352.25 149.006 352.502C149.37 352.754 149.772 352.88 150.21 352.88C150.584 352.88 150.887 352.796 151.12 352.628C151.354 352.46 151.47 352.231 151.47 351.942C151.47 351.755 151.419 351.606 151.316 351.494C151.214 351.373 151.083 351.275 150.924 351.2C150.775 351.125 150.621 351.069 150.462 351.032L149.272 350.696C148.619 350.509 148.129 350.229 147.802 349.856C147.485 349.473 147.326 349.03 147.326 348.526C147.326 348.069 147.443 347.672 147.676 347.336C147.91 346.991 148.232 346.725 148.642 346.538C149.053 346.351 149.515 346.258 150.028 346.258C150.719 346.258 151.335 346.431 151.876 346.776C152.418 347.112 152.8 347.583 153.024 348.19L151.806 348.764C151.657 348.4 151.419 348.111 151.092 347.896C150.775 347.681 150.416 347.574 150.014 347.574C149.669 347.574 149.394 347.658 149.188 347.826C148.983 347.985 148.88 348.195 148.88 348.456C148.88 348.633 148.927 348.783 149.02 348.904C149.114 349.016 149.235 349.109 149.384 349.184C149.534 349.249 149.688 349.305 149.846 349.352L151.078 349.716C151.704 349.893 152.184 350.173 152.52 350.556C152.856 350.929 153.024 351.377 153.024 351.9C153.024 352.348 152.903 352.745 152.66 353.09C152.427 353.426 152.1 353.692 151.68 353.888C151.26 354.075 150.77 354.168 150.21 354.168ZM159.822 354V349.296L156.252 343.57H158.114L160.97 348.204H160.312L163.154 343.57H165.016L161.46 349.296V354H159.822ZM168.428 354.168C167.7 354.168 167.032 353.995 166.426 353.65C165.828 353.305 165.352 352.833 164.998 352.236C164.643 351.639 164.466 350.962 164.466 350.206C164.466 349.441 164.643 348.764 164.998 348.176C165.352 347.579 165.828 347.112 166.426 346.776C167.023 346.431 167.69 346.258 168.428 346.258C169.174 346.258 169.842 346.431 170.43 346.776C171.027 347.112 171.498 347.579 171.844 348.176C172.198 348.764 172.376 349.441 172.376 350.206C172.376 350.971 172.198 351.653 171.844 352.25C171.489 352.847 171.013 353.319 170.416 353.664C169.818 354 169.156 354.168 168.428 354.168ZM168.428 352.698C168.876 352.698 169.272 352.591 169.618 352.376C169.963 352.161 170.234 351.867 170.43 351.494C170.635 351.111 170.738 350.682 170.738 350.206C170.738 349.73 170.635 349.305 170.43 348.932C170.234 348.559 169.963 348.265 169.618 348.05C169.272 347.835 168.876 347.728 168.428 347.728C167.989 347.728 167.592 347.835 167.238 348.05C166.892 348.265 166.617 348.559 166.412 348.932C166.216 349.305 166.118 349.73 166.118 350.206C166.118 350.682 166.216 351.111 166.412 351.494C166.617 351.867 166.892 352.161 167.238 352.376C167.592 352.591 167.989 352.698 168.428 352.698ZM176.622 354.168C176.053 354.168 175.553 354.042 175.124 353.79C174.695 353.529 174.359 353.169 174.116 352.712C173.883 352.245 173.766 351.709 173.766 351.102V346.426H175.348V350.962C175.348 351.307 175.418 351.611 175.558 351.872C175.698 352.133 175.894 352.339 176.146 352.488C176.398 352.628 176.687 352.698 177.014 352.698C177.35 352.698 177.644 352.623 177.896 352.474C178.148 352.325 178.344 352.115 178.484 351.844C178.633 351.573 178.708 351.256 178.708 350.892V346.426H180.276V354H178.778V352.516L178.946 352.712C178.769 353.179 178.475 353.538 178.064 353.79C177.653 354.042 177.173 354.168 176.622 354.168ZM182.123 354V346.426H183.635V347.952L183.495 347.728C183.663 347.233 183.934 346.879 184.307 346.664C184.681 346.44 185.129 346.328 185.651 346.328H186.113V347.77H185.455C184.933 347.77 184.508 347.933 184.181 348.26C183.864 348.577 183.705 349.035 183.705 349.632V354H182.123ZM193.451 354.168C192.797 354.168 192.191 354.047 191.631 353.804C191.071 353.552 190.595 353.211 190.203 352.782C189.811 352.353 189.521 351.858 189.335 351.298L190.735 350.71C190.987 351.354 191.355 351.849 191.841 352.194C192.326 352.539 192.886 352.712 193.521 352.712C193.894 352.712 194.221 352.656 194.501 352.544C194.781 352.423 194.995 352.255 195.145 352.04C195.303 351.825 195.383 351.578 195.383 351.298C195.383 350.915 195.275 350.612 195.061 350.388C194.846 350.164 194.529 349.987 194.109 349.856L192.149 349.24C191.365 348.997 190.767 348.629 190.357 348.134C189.946 347.63 189.741 347.042 189.741 346.37C189.741 345.782 189.885 345.269 190.175 344.83C190.464 344.382 190.861 344.032 191.365 343.78C191.878 343.528 192.461 343.402 193.115 343.402C193.74 343.402 194.309 343.514 194.823 343.738C195.336 343.953 195.775 344.251 196.139 344.634C196.512 345.017 196.783 345.46 196.951 345.964L195.579 346.566C195.373 346.015 195.051 345.591 194.613 345.292C194.183 344.993 193.684 344.844 193.115 344.844C192.769 344.844 192.466 344.905 192.205 345.026C191.943 345.138 191.738 345.306 191.589 345.53C191.449 345.745 191.379 345.997 191.379 346.286C191.379 346.622 191.486 346.921 191.701 347.182C191.915 347.443 192.242 347.639 192.681 347.77L194.501 348.344C195.331 348.596 195.957 348.96 196.377 349.436C196.797 349.903 197.007 350.486 197.007 351.186C197.007 351.765 196.853 352.278 196.545 352.726C196.246 353.174 195.831 353.529 195.299 353.79C194.767 354.042 194.151 354.168 193.451 354.168ZM201.983 354.084C201.19 354.084 200.574 353.86 200.135 353.412C199.697 352.964 199.477 352.334 199.477 351.522V347.854H198.147V346.426H198.357C198.712 346.426 198.987 346.323 199.183 346.118C199.379 345.913 199.477 345.633 199.477 345.278V344.69H201.059V346.426H202.781V347.854H201.059V351.452C201.059 351.713 201.101 351.937 201.185 352.124C201.269 352.301 201.405 352.441 201.591 352.544C201.778 352.637 202.021 352.684 202.319 352.684C202.394 352.684 202.478 352.679 202.571 352.67C202.665 352.661 202.753 352.651 202.837 352.642V354C202.707 354.019 202.562 354.037 202.403 354.056C202.245 354.075 202.105 354.084 201.983 354.084ZM207.898 354.168C207.17 354.168 206.503 353.995 205.896 353.65C205.299 353.305 204.823 352.833 204.468 352.236C204.114 351.639 203.936 350.962 203.936 350.206C203.936 349.441 204.114 348.764 204.468 348.176C204.823 347.579 205.299 347.112 205.896 346.776C206.494 346.431 207.161 346.258 207.898 346.258C208.645 346.258 209.312 346.431 209.9 346.776C210.498 347.112 210.969 347.579 211.314 348.176C211.669 348.764 211.846 349.441 211.846 350.206C211.846 350.971 211.669 351.653 211.314 352.25C210.96 352.847 210.484 353.319 209.886 353.664C209.289 354 208.626 354.168 207.898 354.168ZM207.898 352.698C208.346 352.698 208.743 352.591 209.088 352.376C209.434 352.161 209.704 351.867 209.9 351.494C210.106 351.111 210.208 350.682 210.208 350.206C210.208 349.73 210.106 349.305 209.9 348.932C209.704 348.559 209.434 348.265 209.088 348.05C208.743 347.835 208.346 347.728 207.898 347.728C207.46 347.728 207.063 347.835 206.708 348.05C206.363 348.265 206.088 348.559 205.882 348.932C205.686 349.305 205.588 349.73 205.588 350.206C205.588 350.682 205.686 351.111 205.882 351.494C206.088 351.867 206.363 352.161 206.708 352.376C207.063 352.591 207.46 352.698 207.898 352.698ZM213.391 354V346.426H214.903V347.952L214.763 347.728C214.931 347.233 215.201 346.879 215.575 346.664C215.948 346.44 216.396 346.328 216.919 346.328H217.381V347.77H216.723C216.2 347.77 215.775 347.933 215.449 348.26C215.131 348.577 214.973 349.035 214.973 349.632V354H213.391ZM219.135 357.094C218.948 357.094 218.762 357.075 218.575 357.038C218.398 357.01 218.234 356.963 218.085 356.898V355.54C218.197 355.568 218.332 355.591 218.491 355.61C218.65 355.638 218.804 355.652 218.953 355.652C219.392 355.652 219.714 355.554 219.919 355.358C220.134 355.171 220.325 354.877 220.493 354.476L220.997 353.328L220.969 354.658L217.693 346.426H219.387L221.809 352.74H221.235L223.643 346.426H225.351L222.005 354.826C221.828 355.274 221.604 355.666 221.333 356.002C221.072 356.347 220.759 356.613 220.395 356.8C220.04 356.996 219.62 357.094 219.135 357.094ZM227.204 350.892L227.092 343.57H228.702L228.604 350.892H227.204ZM227.092 354V352.18H228.702V354H227.092Z" fill="#0F0F0F"/>
            <path opacity="0.5" d="M138.984 277.168C138.209 277.168 137.519 277.005 136.912 276.678C136.315 276.351 135.843 275.903 135.498 275.334C135.162 274.765 134.994 274.116 134.994 273.388V266.57H136.646V273.318C136.646 273.775 136.744 274.181 136.94 274.536C137.145 274.891 137.421 275.166 137.766 275.362C138.121 275.558 138.527 275.656 138.984 275.656C139.451 275.656 139.857 275.558 140.202 275.362C140.557 275.166 140.832 274.891 141.028 274.536C141.233 274.181 141.336 273.775 141.336 273.318V266.57H142.974V273.388C142.974 274.116 142.806 274.765 142.47 275.334C142.134 275.903 141.663 276.351 141.056 276.678C140.459 277.005 139.768 277.168 138.984 277.168ZM147.691 277.168C146.916 277.168 146.235 276.977 145.647 276.594C145.068 276.211 144.662 275.698 144.429 275.054L145.647 274.48C145.852 274.909 146.132 275.25 146.487 275.502C146.851 275.754 147.252 275.88 147.691 275.88C148.064 275.88 148.367 275.796 148.601 275.628C148.834 275.46 148.951 275.231 148.951 274.942C148.951 274.755 148.899 274.606 148.797 274.494C148.694 274.373 148.563 274.275 148.405 274.2C148.255 274.125 148.101 274.069 147.943 274.032L146.753 273.696C146.099 273.509 145.609 273.229 145.283 272.856C144.965 272.473 144.807 272.03 144.807 271.526C144.807 271.069 144.923 270.672 145.157 270.336C145.39 269.991 145.712 269.725 146.123 269.538C146.533 269.351 146.995 269.258 147.509 269.258C148.199 269.258 148.815 269.431 149.357 269.776C149.898 270.112 150.281 270.583 150.505 271.19L149.287 271.764C149.137 271.4 148.899 271.111 148.573 270.896C148.255 270.681 147.896 270.574 147.495 270.574C147.149 270.574 146.874 270.658 146.669 270.826C146.463 270.985 146.361 271.195 146.361 271.456C146.361 271.633 146.407 271.783 146.501 271.904C146.594 272.016 146.715 272.109 146.865 272.184C147.014 272.249 147.168 272.305 147.327 272.352L148.559 272.716C149.184 272.893 149.665 273.173 150.001 273.556C150.337 273.929 150.505 274.377 150.505 274.9C150.505 275.348 150.383 275.745 150.141 276.09C149.907 276.426 149.581 276.692 149.161 276.888C148.741 277.075 148.251 277.168 147.691 277.168ZM155.611 277.168C154.855 277.168 154.183 276.995 153.595 276.65C153.016 276.295 152.564 275.819 152.237 275.222C151.91 274.615 151.747 273.939 151.747 273.192C151.747 272.427 151.91 271.75 152.237 271.162C152.573 270.574 153.021 270.112 153.581 269.776C154.141 269.431 154.776 269.258 155.485 269.258C156.054 269.258 156.563 269.356 157.011 269.552C157.459 269.748 157.837 270.019 158.145 270.364C158.453 270.7 158.686 271.087 158.845 271.526C159.013 271.965 159.097 272.431 159.097 272.926C159.097 273.047 159.092 273.173 159.083 273.304C159.074 273.435 159.055 273.556 159.027 273.668H152.993V272.408H158.131L157.375 272.982C157.468 272.525 157.436 272.119 157.277 271.764C157.128 271.4 156.894 271.115 156.577 270.91C156.269 270.695 155.905 270.588 155.485 270.588C155.065 270.588 154.692 270.695 154.365 270.91C154.038 271.115 153.786 271.414 153.609 271.806C153.432 272.189 153.362 272.655 153.399 273.206C153.352 273.719 153.422 274.167 153.609 274.55C153.805 274.933 154.076 275.231 154.421 275.446C154.776 275.661 155.177 275.768 155.625 275.768C156.082 275.768 156.47 275.665 156.787 275.46C157.114 275.255 157.37 274.989 157.557 274.662L158.845 275.292C158.696 275.647 158.462 275.969 158.145 276.258C157.837 276.538 157.464 276.762 157.025 276.93C156.596 277.089 156.124 277.168 155.611 277.168ZM160.641 277V269.426H162.153V270.952L162.013 270.728C162.181 270.233 162.451 269.879 162.825 269.664C163.198 269.44 163.646 269.328 164.169 269.328H164.631V270.77H163.973C163.45 270.77 163.025 270.933 162.699 271.26C162.381 271.577 162.223 272.035 162.223 272.632V277H160.641ZM168.398 273.906V272.506H173.998V273.906H168.398ZM181.533 270.14V268.95C181.533 268.269 181.692 267.709 182.009 267.27C182.336 266.822 182.807 266.533 183.423 266.402V267.172C183.125 267.247 182.891 267.387 182.723 267.592C182.555 267.788 182.453 268.031 182.415 268.32H183.143V270.14H181.533ZM178.943 270.14V268.95C178.943 268.269 179.102 267.709 179.419 267.27C179.746 266.822 180.217 266.533 180.833 266.402V267.172C180.535 267.247 180.301 267.387 180.133 267.592C179.965 267.788 179.863 268.031 179.825 268.32H180.553V270.14H178.943ZM185.869 277V266.57H192.743V268.04H187.521V271.036H192.463V272.506H187.521V275.53H192.743V277H185.869ZM197.399 277.084C196.606 277.084 195.99 276.86 195.551 276.412C195.113 275.964 194.893 275.334 194.893 274.522V270.854H193.563V269.426H193.773C194.128 269.426 194.403 269.323 194.599 269.118C194.795 268.913 194.893 268.633 194.893 268.278V267.69H196.475V269.426H198.197V270.854H196.475V274.452C196.475 274.713 196.517 274.937 196.601 275.124C196.685 275.301 196.821 275.441 197.007 275.544C197.194 275.637 197.437 275.684 197.735 275.684C197.81 275.684 197.894 275.679 197.987 275.67C198.081 275.661 198.169 275.651 198.253 275.642V277C198.123 277.019 197.978 277.037 197.819 277.056C197.661 277.075 197.521 277.084 197.399 277.084ZM199.797 277V266.402H201.379V270.91L201.127 270.714C201.314 270.238 201.612 269.879 202.023 269.636C202.434 269.384 202.91 269.258 203.451 269.258C204.011 269.258 204.506 269.379 204.935 269.622C205.364 269.865 205.7 270.201 205.943 270.63C206.186 271.059 206.307 271.549 206.307 272.1V277H204.739V272.534C204.739 272.151 204.664 271.829 204.515 271.568C204.375 271.297 204.179 271.092 203.927 270.952C203.675 270.803 203.386 270.728 203.059 270.728C202.742 270.728 202.452 270.803 202.191 270.952C201.939 271.092 201.738 271.297 201.589 271.568C201.449 271.839 201.379 272.161 201.379 272.534V277H199.797ZM210.268 277.168C209.755 277.168 209.302 277.079 208.91 276.902C208.528 276.715 208.229 276.463 208.014 276.146C207.8 275.819 207.692 275.437 207.692 274.998C207.692 274.587 207.781 274.219 207.958 273.892C208.145 273.565 208.43 273.29 208.812 273.066C209.195 272.842 209.676 272.683 210.254 272.59L212.886 272.156V273.402L210.562 273.808C210.142 273.883 209.834 274.018 209.638 274.214C209.442 274.401 209.344 274.643 209.344 274.942C209.344 275.231 209.452 275.469 209.666 275.656C209.89 275.833 210.175 275.922 210.52 275.922C210.95 275.922 211.323 275.829 211.64 275.642C211.967 275.455 212.219 275.208 212.396 274.9C212.574 274.583 212.662 274.233 212.662 273.85V271.904C212.662 271.531 212.522 271.227 212.242 270.994C211.972 270.751 211.608 270.63 211.15 270.63C210.73 270.63 210.362 270.742 210.044 270.966C209.736 271.181 209.508 271.461 209.358 271.806L208.042 271.148C208.182 270.775 208.411 270.448 208.728 270.168C209.046 269.879 209.414 269.655 209.834 269.496C210.264 269.337 210.716 269.258 211.192 269.258C211.79 269.258 212.317 269.37 212.774 269.594C213.241 269.818 213.6 270.131 213.852 270.532C214.114 270.924 214.244 271.381 214.244 271.904V277H212.732V275.628L213.054 275.67C212.877 275.978 212.648 276.244 212.368 276.468C212.098 276.692 211.785 276.865 211.43 276.986C211.085 277.107 210.698 277.168 210.268 277.168ZM216.094 277V269.426H217.606V270.91L217.424 270.714C217.611 270.238 217.909 269.879 218.32 269.636C218.731 269.384 219.207 269.258 219.748 269.258C220.308 269.258 220.803 269.379 221.232 269.622C221.661 269.865 221.997 270.201 222.24 270.63C222.483 271.059 222.604 271.554 222.604 272.114V277H221.036V272.534C221.036 272.151 220.966 271.829 220.826 271.568C220.686 271.297 220.485 271.092 220.224 270.952C219.972 270.803 219.683 270.728 219.356 270.728C219.029 270.728 218.735 270.803 218.474 270.952C218.222 271.092 218.026 271.297 217.886 271.568C217.746 271.839 217.676 272.161 217.676 272.534V277H216.094ZM226.744 277V269.426H228.326V277H226.744ZM226.744 268.39V266.57H228.326V268.39H226.744ZM232.976 277.168C232.201 277.168 231.52 276.977 230.932 276.594C230.353 276.211 229.947 275.698 229.714 275.054L230.932 274.48C231.137 274.909 231.417 275.25 231.772 275.502C232.136 275.754 232.537 275.88 232.976 275.88C233.349 275.88 233.653 275.796 233.886 275.628C234.119 275.46 234.236 275.231 234.236 274.942C234.236 274.755 234.185 274.606 234.082 274.494C233.979 274.373 233.849 274.275 233.69 274.2C233.541 274.125 233.387 274.069 233.228 274.032L232.038 273.696C231.385 273.509 230.895 273.229 230.568 272.856C230.251 272.473 230.092 272.03 230.092 271.526C230.092 271.069 230.209 270.672 230.442 270.336C230.675 269.991 230.997 269.725 231.408 269.538C231.819 269.351 232.281 269.258 232.794 269.258C233.485 269.258 234.101 269.431 234.642 269.776C235.183 270.112 235.566 270.583 235.79 271.19L234.572 271.764C234.423 271.4 234.185 271.111 233.858 270.896C233.541 270.681 233.181 270.574 232.78 270.574C232.435 270.574 232.159 270.658 231.954 270.826C231.749 270.985 231.646 271.195 231.646 271.456C231.646 271.633 231.693 271.783 231.786 271.904C231.879 272.016 232.001 272.109 232.15 272.184C232.299 272.249 232.453 272.305 232.612 272.352L233.844 272.716C234.469 272.893 234.95 273.173 235.286 273.556C235.622 273.929 235.79 274.377 235.79 274.9C235.79 275.348 235.669 275.745 235.426 276.09C235.193 276.426 234.866 276.692 234.446 276.888C234.026 277.075 233.536 277.168 232.976 277.168ZM137.192 295.168C136.679 295.168 136.226 295.079 135.834 294.902C135.451 294.715 135.153 294.463 134.938 294.146C134.723 293.819 134.616 293.437 134.616 292.998C134.616 292.587 134.705 292.219 134.882 291.892C135.069 291.565 135.353 291.29 135.736 291.066C136.119 290.842 136.599 290.683 137.178 290.59L139.81 290.156V291.402L137.486 291.808C137.066 291.883 136.758 292.018 136.562 292.214C136.366 292.401 136.268 292.643 136.268 292.942C136.268 293.231 136.375 293.469 136.59 293.656C136.814 293.833 137.099 293.922 137.444 293.922C137.873 293.922 138.247 293.829 138.564 293.642C138.891 293.455 139.143 293.208 139.32 292.9C139.497 292.583 139.586 292.233 139.586 291.85V289.904C139.586 289.531 139.446 289.227 139.166 288.994C138.895 288.751 138.531 288.63 138.074 288.63C137.654 288.63 137.285 288.742 136.968 288.966C136.66 289.181 136.431 289.461 136.282 289.806L134.966 289.148C135.106 288.775 135.335 288.448 135.652 288.168C135.969 287.879 136.338 287.655 136.758 287.496C137.187 287.337 137.64 287.258 138.116 287.258C138.713 287.258 139.241 287.37 139.698 287.594C140.165 287.818 140.524 288.131 140.776 288.532C141.037 288.924 141.168 289.381 141.168 289.904V295H139.656V293.628L139.978 293.67C139.801 293.978 139.572 294.244 139.292 294.468C139.021 294.692 138.709 294.865 138.354 294.986C138.009 295.107 137.621 295.168 137.192 295.168ZM143.803 295V288.854H142.403V287.426H143.803V287.034C143.803 286.465 143.92 285.989 144.153 285.606C144.387 285.214 144.709 284.915 145.119 284.71C145.539 284.505 146.02 284.402 146.561 284.402C146.664 284.402 146.781 284.411 146.911 284.43C147.042 284.439 147.149 284.453 147.233 284.472V285.844C147.159 285.825 147.075 285.816 146.981 285.816C146.888 285.807 146.813 285.802 146.757 285.802C146.337 285.802 146.001 285.9 145.749 286.096C145.497 286.283 145.371 286.595 145.371 287.034V287.426H147.107V288.854H145.371V295H143.803ZM148.514 295V287.426H150.026V288.952L149.886 288.728C150.054 288.233 150.325 287.879 150.698 287.664C151.071 287.44 151.519 287.328 152.042 287.328H152.504V288.77H151.846C151.323 288.77 150.899 288.933 150.572 289.26C150.255 289.577 150.096 290.035 150.096 290.632V295H148.514ZM155.854 295.168C155.341 295.168 154.888 295.079 154.496 294.902C154.113 294.715 153.815 294.463 153.6 294.146C153.385 293.819 153.278 293.437 153.278 292.998C153.278 292.587 153.367 292.219 153.544 291.892C153.731 291.565 154.015 291.29 154.398 291.066C154.781 290.842 155.261 290.683 155.84 290.59L158.472 290.156V291.402L156.148 291.808C155.728 291.883 155.42 292.018 155.224 292.214C155.028 292.401 154.93 292.643 154.93 292.942C154.93 293.231 155.037 293.469 155.252 293.656C155.476 293.833 155.761 293.922 156.106 293.922C156.535 293.922 156.909 293.829 157.226 293.642C157.553 293.455 157.805 293.208 157.982 292.9C158.159 292.583 158.248 292.233 158.248 291.85V289.904C158.248 289.531 158.108 289.227 157.828 288.994C157.557 288.751 157.193 288.63 156.736 288.63C156.316 288.63 155.947 288.742 155.63 288.966C155.322 289.181 155.093 289.461 154.944 289.806L153.628 289.148C153.768 288.775 153.997 288.448 154.314 288.168C154.631 287.879 155 287.655 155.42 287.496C155.849 287.337 156.302 287.258 156.778 287.258C157.375 287.258 157.903 287.37 158.36 287.594C158.827 287.818 159.186 288.131 159.438 288.532C159.699 288.924 159.83 289.381 159.83 289.904V295H158.318V293.628L158.64 293.67C158.463 293.978 158.234 294.244 157.954 294.468C157.683 294.692 157.371 294.865 157.016 294.986C156.671 295.107 156.283 295.168 155.854 295.168ZM161.68 295V287.426H163.262V295H161.68ZM161.68 286.39V284.57H163.262V286.39H161.68ZM168.612 295.168C167.884 295.168 167.23 294.995 166.652 294.65C166.082 294.295 165.63 293.819 165.294 293.222C164.967 292.625 164.804 291.953 164.804 291.206C164.804 290.459 164.972 289.787 165.308 289.19C165.644 288.593 166.096 288.121 166.666 287.776C167.235 287.431 167.879 287.258 168.598 287.258C169.204 287.258 169.741 287.379 170.208 287.622C170.674 287.865 171.043 288.201 171.314 288.63L171.076 288.994V284.402H172.644V295H171.146V293.46L171.328 293.754C171.066 294.211 170.693 294.561 170.208 294.804C169.722 295.047 169.19 295.168 168.612 295.168ZM168.766 293.698C169.204 293.698 169.596 293.591 169.942 293.376C170.296 293.161 170.572 292.867 170.768 292.494C170.973 292.111 171.076 291.682 171.076 291.206C171.076 290.73 170.973 290.305 170.768 289.932C170.572 289.559 170.296 289.265 169.942 289.05C169.596 288.835 169.204 288.728 168.766 288.728C168.327 288.728 167.93 288.835 167.576 289.05C167.221 289.265 166.946 289.559 166.75 289.932C166.554 290.305 166.456 290.73 166.456 291.206C166.456 291.682 166.554 292.111 166.75 292.494C166.946 292.867 167.216 293.161 167.562 293.376C167.916 293.591 168.318 293.698 168.766 293.698ZM180.592 295.168C179.864 295.168 179.196 294.995 178.59 294.65C177.992 294.305 177.516 293.833 177.162 293.236C176.807 292.639 176.63 291.962 176.63 291.206C176.63 290.441 176.807 289.764 177.162 289.176C177.516 288.579 177.992 288.112 178.59 287.776C179.187 287.431 179.854 287.258 180.592 287.258C181.338 287.258 182.006 287.431 182.594 287.776C183.191 288.112 183.662 288.579 184.008 289.176C184.362 289.764 184.54 290.441 184.54 291.206C184.54 291.971 184.362 292.653 184.008 293.25C183.653 293.847 183.177 294.319 182.58 294.664C181.982 295 181.32 295.168 180.592 295.168ZM180.592 293.698C181.04 293.698 181.436 293.591 181.782 293.376C182.127 293.161 182.398 292.867 182.594 292.494C182.799 292.111 182.902 291.682 182.902 291.206C182.902 290.73 182.799 290.305 182.594 289.932C182.398 289.559 182.127 289.265 181.782 289.05C181.436 288.835 181.04 288.728 180.592 288.728C180.153 288.728 179.756 288.835 179.402 289.05C179.056 289.265 178.781 289.559 178.576 289.932C178.38 290.305 178.282 290.73 178.282 291.206C178.282 291.682 178.38 292.111 178.576 292.494C178.781 292.867 179.056 293.161 179.402 293.376C179.756 293.591 180.153 293.698 180.592 293.698ZM186.733 295V288.854H185.333V287.426H186.733V287.034C186.733 286.465 186.85 285.989 187.083 285.606C187.316 285.214 187.638 284.915 188.049 284.71C188.469 284.505 188.95 284.402 189.491 284.402C189.594 284.402 189.71 284.411 189.841 284.43C189.972 284.439 190.079 284.453 190.163 284.472V285.844C190.088 285.825 190.004 285.816 189.911 285.816C189.818 285.807 189.743 285.802 189.687 285.802C189.267 285.802 188.931 285.9 188.679 286.096C188.427 286.283 188.301 286.595 188.301 287.034V287.426H190.037V288.854H188.301V295H186.733ZM197.235 295.084C196.442 295.084 195.826 294.86 195.387 294.412C194.948 293.964 194.729 293.334 194.729 292.522V288.854H193.399V287.426H193.609C193.964 287.426 194.239 287.323 194.435 287.118C194.631 286.913 194.729 286.633 194.729 286.278V285.69H196.311V287.426H198.033V288.854H196.311V292.452C196.311 292.713 196.353 292.937 196.437 293.124C196.521 293.301 196.656 293.441 196.843 293.544C197.03 293.637 197.272 293.684 197.571 293.684C197.646 293.684 197.73 293.679 197.823 293.67C197.916 293.661 198.005 293.651 198.089 293.642V295C197.958 295.019 197.814 295.037 197.655 295.056C197.496 295.075 197.356 295.084 197.235 295.084ZM199.633 295V284.402H201.215V288.91L200.963 288.714C201.15 288.238 201.448 287.879 201.859 287.636C202.27 287.384 202.746 287.258 203.287 287.258C203.847 287.258 204.342 287.379 204.771 287.622C205.2 287.865 205.536 288.201 205.779 288.63C206.022 289.059 206.143 289.549 206.143 290.1V295H204.575V290.534C204.575 290.151 204.5 289.829 204.351 289.568C204.211 289.297 204.015 289.092 203.763 288.952C203.511 288.803 203.222 288.728 202.895 288.728C202.578 288.728 202.288 288.803 202.027 288.952C201.775 289.092 201.574 289.297 201.425 289.568C201.285 289.839 201.215 290.161 201.215 290.534V295H199.633ZM211.392 295.168C210.636 295.168 209.964 294.995 209.376 294.65C208.797 294.295 208.345 293.819 208.018 293.222C207.691 292.615 207.528 291.939 207.528 291.192C207.528 290.427 207.691 289.75 208.018 289.162C208.354 288.574 208.802 288.112 209.362 287.776C209.922 287.431 210.557 287.258 211.266 287.258C211.835 287.258 212.344 287.356 212.792 287.552C213.24 287.748 213.618 288.019 213.926 288.364C214.234 288.7 214.467 289.087 214.626 289.526C214.794 289.965 214.878 290.431 214.878 290.926C214.878 291.047 214.873 291.173 214.864 291.304C214.855 291.435 214.836 291.556 214.808 291.668H208.774V290.408H213.912L213.156 290.982C213.249 290.525 213.217 290.119 213.058 289.764C212.909 289.4 212.675 289.115 212.358 288.91C212.05 288.695 211.686 288.588 211.266 288.588C210.846 288.588 210.473 288.695 210.146 288.91C209.819 289.115 209.567 289.414 209.39 289.806C209.213 290.189 209.143 290.655 209.18 291.206C209.133 291.719 209.203 292.167 209.39 292.55C209.586 292.933 209.857 293.231 210.202 293.446C210.557 293.661 210.958 293.768 211.406 293.768C211.863 293.768 212.251 293.665 212.568 293.46C212.895 293.255 213.151 292.989 213.338 292.662L214.626 293.292C214.477 293.647 214.243 293.969 213.926 294.258C213.618 294.538 213.245 294.762 212.806 294.93C212.377 295.089 211.905 295.168 211.392 295.168ZM222.369 295.168C221.641 295.168 220.988 294.995 220.409 294.65C219.84 294.295 219.387 293.819 219.051 293.222C218.725 292.625 218.561 291.953 218.561 291.206C218.561 290.459 218.729 289.787 219.065 289.19C219.401 288.593 219.854 288.121 220.423 287.776C220.993 287.431 221.637 287.258 222.355 287.258C222.962 287.258 223.499 287.379 223.965 287.622C224.432 287.865 224.801 288.201 225.071 288.63L224.833 288.994V284.402H226.401V295H224.903V293.46L225.085 293.754C224.824 294.211 224.451 294.561 223.965 294.804C223.48 295.047 222.948 295.168 222.369 295.168ZM222.523 293.698C222.962 293.698 223.354 293.591 223.699 293.376C224.054 293.161 224.329 292.867 224.525 292.494C224.731 292.111 224.833 291.682 224.833 291.206C224.833 290.73 224.731 290.305 224.525 289.932C224.329 289.559 224.054 289.265 223.699 289.05C223.354 288.835 222.962 288.728 222.523 288.728C222.085 288.728 221.688 288.835 221.333 289.05C220.979 289.265 220.703 289.559 220.507 289.932C220.311 290.305 220.213 290.73 220.213 291.206C220.213 291.682 220.311 292.111 220.507 292.494C220.703 292.867 220.974 293.161 221.319 293.376C221.674 293.591 222.075 293.698 222.523 293.698ZM230.516 295.168C230.003 295.168 229.55 295.079 229.158 294.902C228.776 294.715 228.477 294.463 228.262 294.146C228.048 293.819 227.94 293.437 227.94 292.998C227.94 292.587 228.029 292.219 228.206 291.892C228.393 291.565 228.678 291.29 229.06 291.066C229.443 290.842 229.924 290.683 230.502 290.59L233.134 290.156V291.402L230.81 291.808C230.39 291.883 230.082 292.018 229.886 292.214C229.69 292.401 229.592 292.643 229.592 292.942C229.592 293.231 229.7 293.469 229.914 293.656C230.138 293.833 230.423 293.922 230.768 293.922C231.198 293.922 231.571 293.829 231.888 293.642C232.215 293.455 232.467 293.208 232.644 292.9C232.822 292.583 232.91 292.233 232.91 291.85V289.904C232.91 289.531 232.77 289.227 232.49 288.994C232.22 288.751 231.856 288.63 231.398 288.63C230.978 288.63 230.61 288.742 230.292 288.966C229.984 289.181 229.756 289.461 229.606 289.806L228.29 289.148C228.43 288.775 228.659 288.448 228.976 288.168C229.294 287.879 229.662 287.655 230.082 287.496C230.512 287.337 230.964 287.258 231.44 287.258C232.038 287.258 232.565 287.37 233.022 287.594C233.489 287.818 233.848 288.131 234.1 288.532C234.362 288.924 234.492 289.381 234.492 289.904V295H232.98V293.628L233.302 293.67C233.125 293.978 232.896 294.244 232.616 294.468C232.346 294.692 232.033 294.865 231.678 294.986C231.333 295.107 230.946 295.168 230.516 295.168ZM236.342 295V287.426H237.854V288.952L237.714 288.728C237.882 288.233 238.153 287.879 238.526 287.664C238.899 287.44 239.347 287.328 239.87 287.328H240.332V288.77H239.674C239.151 288.77 238.727 288.933 238.4 289.26C238.083 289.577 237.924 290.035 237.924 290.632V295H236.342ZM241.414 295V284.402H242.996V291.5L242.38 291.346L246.174 287.426H248.148L245.292 290.464L248.274 295H246.454L243.794 290.982L244.732 290.856L242.492 293.236L242.996 292.186V295H241.414ZM252.354 288.308V287.538C252.662 287.463 252.9 287.328 253.068 287.132C253.236 286.927 253.338 286.679 253.376 286.39H252.634V284.57H254.244V285.76C254.244 286.441 254.085 287.006 253.768 287.454C253.45 287.893 252.979 288.177 252.354 288.308ZM249.764 288.308V287.538C250.072 287.463 250.31 287.328 250.478 287.132C250.646 286.927 250.748 286.679 250.786 286.39H250.044V284.57H251.654V285.76C251.654 286.441 251.495 287.006 251.178 287.454C250.86 287.893 250.389 288.177 249.764 288.308Z" fill="#141414"/>
            <path d="M78.154 218L81.822 207.57H83.866L87.534 218H85.77L84.972 215.662H80.73L79.918 218H78.154ZM81.206 214.192H84.468L82.62 208.732H83.082L81.206 214.192ZM88.7714 218V207.57H90.4234V218H88.7714ZM95.1171 214.906V213.506H100.717V214.906H95.1171ZM108.252 211.14V209.95C108.252 209.269 108.411 208.709 108.728 208.27C109.055 207.822 109.526 207.533 110.142 207.402V208.172C109.843 208.247 109.61 208.387 109.442 208.592C109.274 208.788 109.171 209.031 109.134 209.32H109.862V211.14H108.252ZM105.662 211.14V209.95C105.662 209.269 105.821 208.709 106.138 208.27C106.465 207.822 106.936 207.533 107.552 207.402V208.172C107.253 208.247 107.02 208.387 106.852 208.592C106.684 208.788 106.581 209.031 106.544 209.32H107.272V211.14H105.662ZM112.588 218V207.57H114.24V212.162H119.07V207.57H120.708V218H119.07V213.632H114.24V218H112.588ZM126.271 218.168C125.515 218.168 124.843 217.995 124.255 217.65C123.676 217.295 123.224 216.819 122.897 216.222C122.57 215.615 122.407 214.939 122.407 214.192C122.407 213.427 122.57 212.75 122.897 212.162C123.233 211.574 123.681 211.112 124.241 210.776C124.801 210.431 125.436 210.258 126.145 210.258C126.714 210.258 127.223 210.356 127.671 210.552C128.119 210.748 128.497 211.019 128.805 211.364C129.113 211.7 129.346 212.087 129.505 212.526C129.673 212.965 129.757 213.431 129.757 213.926C129.757 214.047 129.752 214.173 129.743 214.304C129.734 214.435 129.715 214.556 129.687 214.668H123.653V213.408H128.791L128.035 213.982C128.128 213.525 128.096 213.119 127.937 212.764C127.788 212.4 127.554 212.115 127.237 211.91C126.929 211.695 126.565 211.588 126.145 211.588C125.725 211.588 125.352 211.695 125.025 211.91C124.698 212.115 124.446 212.414 124.269 212.806C124.092 213.189 124.022 213.655 124.059 214.206C124.012 214.719 124.082 215.167 124.269 215.55C124.465 215.933 124.736 216.231 125.081 216.446C125.436 216.661 125.837 216.768 126.285 216.768C126.742 216.768 127.13 216.665 127.447 216.46C127.774 216.255 128.03 215.989 128.217 215.662L129.505 216.292C129.356 216.647 129.122 216.969 128.805 217.258C128.497 217.538 128.124 217.762 127.685 217.93C127.256 218.089 126.784 218.168 126.271 218.168ZM131.301 218V207.402H132.883V218H131.301ZM134.733 218V207.402H136.315V218H134.733ZM141.818 218.168C141.09 218.168 140.423 217.995 139.816 217.65C139.219 217.305 138.743 216.833 138.388 216.236C138.034 215.639 137.856 214.962 137.856 214.206C137.856 213.441 138.034 212.764 138.388 212.176C138.743 211.579 139.219 211.112 139.816 210.776C140.414 210.431 141.081 210.258 141.818 210.258C142.565 210.258 143.232 210.431 143.82 210.776C144.418 211.112 144.889 211.579 145.234 212.176C145.589 212.764 145.766 213.441 145.766 214.206C145.766 214.971 145.589 215.653 145.234 216.25C144.88 216.847 144.404 217.319 143.806 217.664C143.209 218 142.546 218.168 141.818 218.168ZM141.818 216.698C142.266 216.698 142.663 216.591 143.008 216.376C143.354 216.161 143.624 215.867 143.82 215.494C144.026 215.111 144.128 214.682 144.128 214.206C144.128 213.73 144.026 213.305 143.82 212.932C143.624 212.559 143.354 212.265 143.008 212.05C142.663 211.835 142.266 211.728 141.818 211.728C141.38 211.728 140.983 211.835 140.628 212.05C140.283 212.265 140.008 212.559 139.802 212.932C139.606 213.305 139.508 213.73 139.508 214.206C139.508 214.682 139.606 215.111 139.802 215.494C140.008 215.867 140.283 216.161 140.628 216.376C140.983 216.591 141.38 216.698 141.818 216.698ZM148.081 214.892L147.969 207.57H149.579L149.481 214.892H148.081ZM147.969 218V216.18H149.579V218H147.969ZM158.337 218.168C157.684 218.168 157.077 218.047 156.517 217.804C155.957 217.552 155.481 217.211 155.089 216.782C154.697 216.353 154.408 215.858 154.221 215.298L155.621 214.71C155.873 215.354 156.242 215.849 156.727 216.194C157.213 216.539 157.773 216.712 158.407 216.712C158.781 216.712 159.107 216.656 159.387 216.544C159.667 216.423 159.882 216.255 160.031 216.04C160.19 215.825 160.269 215.578 160.269 215.298C160.269 214.915 160.162 214.612 159.947 214.388C159.733 214.164 159.415 213.987 158.995 213.856L157.035 213.24C156.251 212.997 155.654 212.629 155.243 212.134C154.833 211.63 154.627 211.042 154.627 210.37C154.627 209.782 154.772 209.269 155.061 208.83C155.351 208.382 155.747 208.032 156.251 207.78C156.765 207.528 157.348 207.402 158.001 207.402C158.627 207.402 159.196 207.514 159.709 207.738C160.223 207.953 160.661 208.251 161.025 208.634C161.399 209.017 161.669 209.46 161.837 209.964L160.465 210.566C160.26 210.015 159.938 209.591 159.499 209.292C159.07 208.993 158.571 208.844 158.001 208.844C157.656 208.844 157.353 208.905 157.091 209.026C156.83 209.138 156.625 209.306 156.475 209.53C156.335 209.745 156.265 209.997 156.265 210.286C156.265 210.622 156.373 210.921 156.587 211.182C156.802 211.443 157.129 211.639 157.567 211.77L159.387 212.344C160.218 212.596 160.843 212.96 161.263 213.436C161.683 213.903 161.893 214.486 161.893 215.186C161.893 215.765 161.739 216.278 161.431 216.726C161.133 217.174 160.717 217.529 160.185 217.79C159.653 218.042 159.037 218.168 158.337 218.168ZM163.594 218V207.402H165.176V211.91L164.924 211.714C165.111 211.238 165.409 210.879 165.82 210.636C166.231 210.384 166.707 210.258 167.248 210.258C167.808 210.258 168.303 210.379 168.732 210.622C169.161 210.865 169.497 211.201 169.74 211.63C169.983 212.059 170.104 212.549 170.104 213.1V218H168.536V213.534C168.536 213.151 168.461 212.829 168.312 212.568C168.172 212.297 167.976 212.092 167.724 211.952C167.472 211.803 167.183 211.728 166.856 211.728C166.539 211.728 166.249 211.803 165.988 211.952C165.736 212.092 165.535 212.297 165.386 212.568C165.246 212.839 165.176 213.161 165.176 213.534V218H163.594ZM174.065 218.168C173.552 218.168 173.099 218.079 172.707 217.902C172.324 217.715 172.026 217.463 171.811 217.146C171.596 216.819 171.489 216.437 171.489 215.998C171.489 215.587 171.578 215.219 171.755 214.892C171.942 214.565 172.226 214.29 172.609 214.066C172.992 213.842 173.472 213.683 174.051 213.59L176.683 213.156V214.402L174.359 214.808C173.939 214.883 173.631 215.018 173.435 215.214C173.239 215.401 173.141 215.643 173.141 215.942C173.141 216.231 173.248 216.469 173.463 216.656C173.687 216.833 173.972 216.922 174.317 216.922C174.746 216.922 175.12 216.829 175.437 216.642C175.764 216.455 176.016 216.208 176.193 215.9C176.37 215.583 176.459 215.233 176.459 214.85V212.904C176.459 212.531 176.319 212.227 176.039 211.994C175.768 211.751 175.404 211.63 174.947 211.63C174.527 211.63 174.158 211.742 173.841 211.966C173.533 212.181 173.304 212.461 173.155 212.806L171.839 212.148C171.979 211.775 172.208 211.448 172.525 211.168C172.842 210.879 173.211 210.655 173.631 210.496C174.06 210.337 174.513 210.258 174.989 210.258C175.586 210.258 176.114 210.37 176.571 210.594C177.038 210.818 177.397 211.131 177.649 211.532C177.91 211.924 178.041 212.381 178.041 212.904V218H176.529V216.628L176.851 216.67C176.674 216.978 176.445 217.244 176.165 217.468C175.894 217.692 175.582 217.865 175.227 217.986C174.882 218.107 174.494 218.168 174.065 218.168ZM179.891 218V210.426H181.403V211.952L181.263 211.728C181.431 211.233 181.701 210.879 182.075 210.664C182.448 210.44 182.896 210.328 183.419 210.328H183.881V211.77H183.223C182.7 211.77 182.275 211.933 181.949 212.26C181.631 212.577 181.473 213.035 181.473 213.632V218H179.891ZM188.519 218.168C187.763 218.168 187.091 217.995 186.503 217.65C185.924 217.295 185.472 216.819 185.145 216.222C184.818 215.615 184.655 214.939 184.655 214.192C184.655 213.427 184.818 212.75 185.145 212.162C185.481 211.574 185.929 211.112 186.489 210.776C187.049 210.431 187.684 210.258 188.393 210.258C188.962 210.258 189.471 210.356 189.919 210.552C190.367 210.748 190.745 211.019 191.053 211.364C191.361 211.7 191.594 212.087 191.753 212.526C191.921 212.965 192.005 213.431 192.005 213.926C192.005 214.047 192 214.173 191.991 214.304C191.982 214.435 191.963 214.556 191.935 214.668H185.901V213.408H191.039L190.283 213.982C190.376 213.525 190.344 213.119 190.185 212.764C190.036 212.4 189.802 212.115 189.485 211.91C189.177 211.695 188.813 211.588 188.393 211.588C187.973 211.588 187.6 211.695 187.273 211.91C186.946 212.115 186.694 212.414 186.517 212.806C186.34 213.189 186.27 213.655 186.307 214.206C186.26 214.719 186.33 215.167 186.517 215.55C186.713 215.933 186.984 216.231 187.329 216.446C187.684 216.661 188.085 216.768 188.533 216.768C188.99 216.768 189.378 216.665 189.695 216.46C190.022 216.255 190.278 215.989 190.465 215.662L191.753 216.292C191.604 216.647 191.37 216.969 191.053 217.258C190.745 217.538 190.372 217.762 189.933 217.93C189.504 218.089 189.032 218.168 188.519 218.168ZM198.796 218V213.296L195.226 207.57H197.088L199.944 212.204H199.286L202.128 207.57H203.99L200.434 213.296V218H198.796ZM207.402 218.168C206.674 218.168 206.007 217.995 205.4 217.65C204.803 217.305 204.327 216.833 203.972 216.236C203.618 215.639 203.44 214.962 203.44 214.206C203.44 213.441 203.618 212.764 203.972 212.176C204.327 211.579 204.803 211.112 205.4 210.776C205.998 210.431 206.665 210.258 207.402 210.258C208.149 210.258 208.816 210.431 209.404 210.776C210.002 211.112 210.473 211.579 210.818 212.176C211.173 212.764 211.35 213.441 211.35 214.206C211.35 214.971 211.173 215.653 210.818 216.25C210.464 216.847 209.988 217.319 209.39 217.664C208.793 218 208.13 218.168 207.402 218.168ZM207.402 216.698C207.85 216.698 208.247 216.591 208.592 216.376C208.938 216.161 209.208 215.867 209.404 215.494C209.61 215.111 209.712 214.682 209.712 214.206C209.712 213.73 209.61 213.305 209.404 212.932C209.208 212.559 208.938 212.265 208.592 212.05C208.247 211.835 207.85 211.728 207.402 211.728C206.964 211.728 206.567 211.835 206.212 212.05C205.867 212.265 205.592 212.559 205.386 212.932C205.19 213.305 205.092 213.73 205.092 214.206C205.092 214.682 205.19 215.111 205.386 215.494C205.592 215.867 205.867 216.161 206.212 216.376C206.567 216.591 206.964 216.698 207.402 216.698ZM215.597 218.168C215.027 218.168 214.528 218.042 214.099 217.79C213.669 217.529 213.333 217.169 213.091 216.712C212.857 216.245 212.741 215.709 212.741 215.102V210.426H214.323V214.962C214.323 215.307 214.393 215.611 214.533 215.872C214.673 216.133 214.869 216.339 215.121 216.488C215.373 216.628 215.662 216.698 215.989 216.698C216.325 216.698 216.619 216.623 216.871 216.474C217.123 216.325 217.319 216.115 217.459 215.844C217.608 215.573 217.683 215.256 217.683 214.892V210.426H219.251V218H217.753V216.516L217.921 216.712C217.743 217.179 217.449 217.538 217.039 217.79C216.628 218.042 216.147 218.168 215.597 218.168ZM221.098 218V210.426H222.61V211.952L222.47 211.728C222.638 211.233 222.908 210.879 223.282 210.664C223.655 210.44 224.103 210.328 224.626 210.328H225.088V211.77H224.43C223.907 211.77 223.482 211.933 223.156 212.26C222.838 212.577 222.68 213.035 222.68 213.632V218H221.098ZM228.771 218V207.57H230.423V218H228.771ZM235.932 218.168C235.204 218.168 234.55 217.995 233.972 217.65C233.402 217.295 232.95 216.819 232.614 216.222C232.287 215.625 232.124 214.953 232.124 214.206C232.124 213.459 232.292 212.787 232.628 212.19C232.964 211.593 233.416 211.121 233.986 210.776C234.555 210.431 235.199 210.258 235.918 210.258C236.524 210.258 237.061 210.379 237.528 210.622C237.994 210.865 238.363 211.201 238.634 211.63L238.396 211.994V207.402H239.964V218H238.466V216.46L238.648 216.754C238.386 217.211 238.013 217.561 237.528 217.804C237.042 218.047 236.51 218.168 235.932 218.168ZM236.086 216.698C236.524 216.698 236.916 216.591 237.262 216.376C237.616 216.161 237.892 215.867 238.088 215.494C238.293 215.111 238.396 214.682 238.396 214.206C238.396 213.73 238.293 213.305 238.088 212.932C237.892 212.559 237.616 212.265 237.262 212.05C236.916 211.835 236.524 211.728 236.086 211.728C235.647 211.728 235.25 211.835 234.896 212.05C234.541 212.265 234.266 212.559 234.07 212.932C233.874 213.305 233.776 213.73 233.776 214.206C233.776 214.682 233.874 215.111 234.07 215.494C234.266 215.867 234.536 216.161 234.882 216.376C235.236 216.591 235.638 216.698 236.086 216.698ZM245.367 218.168C244.611 218.168 243.939 217.995 243.351 217.65C242.772 217.295 242.319 216.819 241.993 216.222C241.666 215.615 241.503 214.939 241.503 214.192C241.503 213.427 241.666 212.75 241.993 212.162C242.329 211.574 242.777 211.112 243.337 210.776C243.897 210.431 244.531 210.258 245.241 210.258C245.81 210.258 246.319 210.356 246.767 210.552C247.215 210.748 247.593 211.019 247.901 211.364C248.209 211.7 248.442 212.087 248.601 212.526C248.769 212.965 248.853 213.431 248.853 213.926C248.853 214.047 248.848 214.173 248.839 214.304C248.829 214.435 248.811 214.556 248.783 214.668H242.749V213.408H247.887L247.131 213.982C247.224 213.525 247.191 213.119 247.033 212.764C246.883 212.4 246.65 212.115 246.333 211.91C246.025 211.695 245.661 211.588 245.241 211.588C244.821 211.588 244.447 211.695 244.121 211.91C243.794 212.115 243.542 212.414 243.365 212.806C243.187 213.189 243.117 213.655 243.155 214.206C243.108 214.719 243.178 215.167 243.365 215.55C243.561 215.933 243.831 216.231 244.177 216.446C244.531 216.661 244.933 216.768 245.381 216.768C245.838 216.768 246.225 216.665 246.543 216.46C246.869 216.255 247.126 215.989 247.313 215.662L248.601 216.292C248.451 216.647 248.218 216.969 247.901 217.258C247.593 217.538 247.219 217.762 246.781 217.93C246.351 218.089 245.88 218.168 245.367 218.168ZM252.596 218.168C252.083 218.168 251.63 218.079 251.238 217.902C250.856 217.715 250.557 217.463 250.342 217.146C250.128 216.819 250.02 216.437 250.02 215.998C250.02 215.587 250.109 215.219 250.286 214.892C250.473 214.565 250.758 214.29 251.14 214.066C251.523 213.842 252.004 213.683 252.582 213.59L255.214 213.156V214.402L252.89 214.808C252.47 214.883 252.162 215.018 251.966 215.214C251.77 215.401 251.672 215.643 251.672 215.942C251.672 216.231 251.78 216.469 251.994 216.656C252.218 216.833 252.503 216.922 252.848 216.922C253.278 216.922 253.651 216.829 253.968 216.642C254.295 216.455 254.547 216.208 254.724 215.9C254.902 215.583 254.99 215.233 254.99 214.85V212.904C254.99 212.531 254.85 212.227 254.57 211.994C254.3 211.751 253.936 211.63 253.478 211.63C253.058 211.63 252.69 211.742 252.372 211.966C252.064 212.181 251.836 212.461 251.686 212.806L250.37 212.148C250.51 211.775 250.739 211.448 251.056 211.168C251.374 210.879 251.742 210.655 252.162 210.496C252.592 210.337 253.044 210.258 253.52 210.258C254.118 210.258 254.645 210.37 255.102 210.594C255.569 210.818 255.928 211.131 256.18 211.532C256.442 211.924 256.572 212.381 256.572 212.904V218H255.06V216.628L255.382 216.67C255.205 216.978 254.976 217.244 254.696 217.468C254.426 217.692 254.113 217.865 253.758 217.986C253.413 218.107 253.026 218.168 252.596 218.168ZM261.418 211.308V210.538C261.726 210.463 261.964 210.328 262.132 210.132C262.3 209.927 262.403 209.679 262.44 209.39H261.698V207.57H263.308V208.76C263.308 209.441 263.149 210.006 262.832 210.454C262.515 210.893 262.043 211.177 261.418 211.308ZM258.828 211.308V210.538C259.136 210.463 259.374 210.328 259.542 210.132C259.71 209.927 259.813 209.679 259.85 209.39H259.108V207.57H260.718V208.76C260.718 209.441 260.559 210.006 260.242 210.454C259.925 210.893 259.453 211.177 258.828 211.308Z" fill="#0F0F0F"/>
            <path fill-rule="evenodd" clip-rule="evenodd" d="M53.6606 218.609C53.8323 218.509 54.0368 218.481 54.229 218.532C54.4211 218.582 54.5854 218.707 54.6856 218.879C55.5126 220.297 56.7766 221.369 58.3356 222.065C58.4255 222.105 58.5067 222.162 58.5745 222.234C58.6422 222.305 58.6952 222.389 58.7305 222.481C58.7657 222.573 58.7825 222.671 58.7799 222.77C58.7772 222.868 58.7552 222.965 58.7151 223.055C58.675 223.145 58.6175 223.226 58.546 223.294C58.4745 223.362 58.3904 223.415 58.2984 223.45C58.2065 223.485 58.1084 223.502 58.01 223.5C57.9115 223.497 57.8145 223.475 57.7246 223.435C55.9126 222.626 54.3936 221.355 53.3906 219.635C53.3409 219.55 53.3085 219.456 53.2952 219.358C53.2819 219.26 53.2879 219.161 53.313 219.066C53.3381 218.971 53.3817 218.881 53.4413 218.803C53.501 218.724 53.5755 218.658 53.6606 218.609ZM68.1526 204.672C67.1386 203.636 65.6926 203.255 64.2766 203.657C64.0878 203.704 63.8881 203.675 63.7198 203.578C63.5515 203.48 63.4276 203.321 63.3744 203.134C63.3212 202.947 63.3428 202.746 63.4346 202.575C63.5265 202.403 63.6813 202.274 63.8666 202.215C65.8046 201.663 67.8216 202.19 69.2236 203.622C69.3595 203.764 69.4338 203.955 69.4305 204.152C69.4271 204.349 69.3464 204.537 69.2056 204.675C69.0649 204.813 68.8756 204.89 68.6785 204.889C68.4815 204.889 68.2925 204.811 68.1526 204.672ZM60.4366 204.058C60.2226 203.691 59.5986 203.468 58.9656 203.831C58.3336 204.191 58.2226 204.828 58.4336 205.188L60.9586 209.52C61.0557 209.691 61.0813 209.895 61.0298 210.085C60.9783 210.275 60.8538 210.438 60.6833 210.537C60.5129 210.636 60.3102 210.665 60.1191 210.616C59.9281 210.566 59.764 210.444 59.6626 210.275L56.2966 204.5C56.0826 204.133 55.4586 203.91 54.8246 204.273C54.1936 204.633 54.0826 205.27 54.2926 205.63L58.0816 212.127C58.1312 212.212 58.1636 212.306 58.1769 212.404C58.1902 212.501 58.1842 212.6 58.1591 212.696C58.134 212.791 58.0904 212.88 58.0308 212.959C57.9712 213.037 57.8967 213.103 57.8116 213.153C57.7265 213.202 57.6325 213.235 57.5348 213.248C57.4372 213.261 57.3379 213.255 57.2427 213.23C57.1474 213.205 57.058 213.162 56.9796 213.102C56.9011 213.042 56.8352 212.968 56.7856 212.883L55.1006 209.995C54.8866 209.628 54.2626 209.405 53.6296 209.768C52.9976 210.128 52.8866 210.764 53.0976 211.125L56.8856 217.622C58.4946 220.381 62.4656 221.276 65.8316 219.352C69.1966 217.429 70.3926 213.588 68.7876 210.835L66.2616 206.504C66.0476 206.137 65.4236 205.914 64.7906 206.276C64.1586 206.637 64.0476 207.273 64.2586 207.634L65.9416 210.521C65.9917 210.606 66.0243 210.701 66.0376 210.799C66.0509 210.897 66.0445 210.997 66.019 211.093C65.9934 211.189 65.9491 211.279 65.8886 211.357C65.8281 211.436 65.7527 211.502 65.6666 211.551C64.1236 212.431 63.6506 214.136 64.3266 215.294C64.3762 215.379 64.4086 215.473 64.4219 215.571C64.4352 215.668 64.4292 215.767 64.4041 215.863C64.379 215.958 64.3354 216.047 64.2758 216.126C64.2162 216.204 64.1417 216.27 64.0566 216.32C63.9715 216.369 63.8774 216.402 63.7798 216.415C63.6822 216.428 63.5829 216.422 63.4877 216.397C63.3924 216.372 63.303 216.329 63.2246 216.269C63.1461 216.209 63.0802 216.135 63.0306 216.05C62.1176 214.485 62.4866 212.6 63.6656 211.268C63.9956 210.896 64.1076 210.354 63.8576 209.924L60.4376 204.058H60.4366Z" fill="#0F0F0F"/>
            <path d="M158 37C169.046 37 178 45.954 178 57C178 68.046 169.046 77 158 77C154.356 77.0056 150.781 76.0108 147.664 74.124L141.6 75.908C141.252 76.0104 140.883 76.0172 140.531 75.9275C140.179 75.8378 139.858 75.6551 139.602 75.3985C139.345 75.1418 139.162 74.8208 139.073 74.4691C138.983 74.1175 138.99 73.7481 139.092 73.4L140.876 67.336C138.99 64.2186 137.995 60.6435 138 57C138 45.954 146.954 37 158 37ZM151 54C150.204 54 149.441 54.3161 148.879 54.8787C148.316 55.4413 148 56.2043 148 57C148 57.7956 148.316 58.5587 148.879 59.1213C149.441 59.6839 150.204 60 151 60C151.796 60 152.559 59.6839 153.121 59.1213C153.684 58.5587 154 57.7956 154 57C154 56.2043 153.684 55.4413 153.121 54.8787C152.559 54.3161 151.796 54 151 54ZM165 54C164.204 54 163.441 54.3161 162.879 54.8787C162.316 55.4413 162 56.2043 162 57C162 57.7956 162.316 58.5587 162.879 59.1213C163.441 59.6839 164.204 60 165 60C165.796 60 166.559 59.6839 167.121 59.1213C167.684 58.5587 168 57.7956 168 57C168 56.2043 167.684 55.4413 167.121 54.8787C166.559 54.3161 165.796 54 165 54Z" fill="#5CE1E6"/>
            <path d="M157.997 503.2C158.475 503.2 158.933 503.39 159.27 503.727C159.608 504.065 159.797 504.523 159.797 505V516.851L162.125 514.526C162.463 514.188 162.921 513.999 163.399 513.999C163.876 513.999 164.334 514.189 164.672 514.527C165.009 514.865 165.199 515.324 165.198 515.801C165.198 516.279 165.008 516.737 164.67 517.074L159.587 522.149C159.131 522.602 158.687 523 157.997 523C157.393 523 156.979 522.696 156.579 522.316L151.325 517.074C150.987 516.737 150.797 516.279 150.796 515.801C150.796 515.324 150.986 514.865 151.323 514.527C151.661 514.189 152.119 513.999 152.596 513.999C153.074 513.999 153.532 514.188 153.87 514.526L156.197 516.851V505C156.197 504.523 156.387 504.065 156.725 503.727C157.062 503.39 157.52 503.2 157.997 503.2ZM157.097 487C162.109 487 166.385 490.15 168.052 494.582C170.273 495.192 172.24 496.496 173.667 498.303C175.095 500.11 175.907 502.326 175.987 504.628C176.066 506.929 175.408 509.196 174.109 511.097C172.809 512.999 170.936 514.435 168.763 515.197C168.629 513.982 168.084 512.848 167.219 511.984C166.299 511.06 165.075 510.501 163.774 510.413L163.397 510.4V505C163.399 503.594 162.852 502.244 161.873 501.235C160.895 500.226 159.561 499.638 158.156 499.597C156.751 499.556 155.385 500.064 154.349 501.014C153.313 501.964 152.688 503.28 152.606 504.683L152.597 505V510.4C151.888 510.399 151.184 510.538 150.529 510.81C149.873 511.082 149.277 511.481 148.776 511.984C147.808 512.952 147.245 514.252 147.201 515.62C145.327 515.237 143.624 514.267 142.338 512.851C141.052 511.435 140.251 509.647 140.05 507.745C139.849 505.843 140.259 503.926 141.22 502.273C142.182 500.619 143.645 499.315 145.397 498.549C145.437 495.472 146.687 492.535 148.877 490.373C151.067 488.212 154.02 487 157.097 487Z" fill="#FF79A9"/>
            <line opacity="0.1" x1="158.5" y1="116" x2="158.5" y2="156" stroke="black"/>
            <line opacity="0.1" x1="158.5" y1="407" x2="158.5" y2="447" stroke="black"/>
            <defs>
            <filter id="filter0_d_259_637" x="98.1079" y="1.53516" width="118.904" height="118.904" filterUnits="userSpaceOnUse" color-interpolation-filters="sRGB">
            <feFlood flood-opacity="0" result="BackgroundImageFix"/>
            <feColorMatrix in="SourceAlpha" type="matrix" values="0 0 0 0 0 0 0 0 0 0 0 0 0 0 0 0 0 0 127 0" result="hardAlpha"/>
            <feOffset dy="4"/>
            <feGaussianBlur stdDeviation="6"/>
            <feComposite in2="hardAlpha" operator="out"/>
            <feColorMatrix type="matrix" values="0 0 0 0 0 0 0 0 0 0 0 0 0 0 0 0 0 0 0.12 0"/>
            <feBlend mode="normal" in2="BackgroundImageFix" result="effect1_dropShadow_259_637"/>
            <feBlend mode="normal" in="SourceGraphic" in2="effect1_dropShadow_259_637" result="shape"/>
            </filter>
            <filter id="filter1_d_259_637" x="98.1079" y="449.535" width="118.904" height="118.904" filterUnits="userSpaceOnUse" color-interpolation-filters="sRGB">
            <feFlood flood-opacity="0" result="BackgroundImageFix"/>
            <feColorMatrix in="SourceAlpha" type="matrix" values="0 0 0 0 0 0 0 0 0 0 0 0 0 0 0 0 0 0 127 0" result="hardAlpha"/>
            <feOffset dy="4"/>
            <feGaussianBlur stdDeviation="6"/>
            <feComposite in2="hardAlpha" operator="out"/>
            <feColorMatrix type="matrix" values="0 0 0 0 0 0 0 0 0 0 0 0 0 0 0 0 0 0 0.12 0"/>
            <feBlend mode="normal" in2="BackgroundImageFix" result="effect1_dropShadow_259_637"/>
            <feBlend mode="normal" in="SourceGraphic" in2="effect1_dropShadow_259_637" result="shape"/>
            </filter>
            <filter id="filter2_d_259_637" x="0" y="157" width="315" height="256" filterUnits="userSpaceOnUse" color-interpolation-filters="sRGB">
            <feFlood flood-opacity="0" result="BackgroundImageFix"/>
            <feColorMatrix in="SourceAlpha" type="matrix" values="0 0 0 0 0 0 0 0 0 0 0 0 0 0 0 0 0 0 127 0" result="hardAlpha"/>
            <feOffset dy="4"/>
            <feGaussianBlur stdDeviation="6"/>
            <feComposite in2="hardAlpha" operator="out"/>
            <feColorMatrix type="matrix" values="0 0 0 0 0 0 0 0 0 0 0 0 0 0 0 0 0 0 0.12 0"/>
            <feBlend mode="normal" in2="BackgroundImageFix" result="effect1_dropShadow_259_637"/>
            <feBlend mode="normal" in="SourceGraphic" in2="effect1_dropShadow_259_637" result="shape"/>
            </filter>
            <filter id="filter3_d_259_637" x="79" y="246" width="216" height="78" filterUnits="userSpaceOnUse" color-interpolation-filters="sRGB">
            <feFlood flood-opacity="0" result="BackgroundImageFix"/>
            <feColorMatrix in="SourceAlpha" type="matrix" values="0 0 0 0 0 0 0 0 0 0 0 0 0 0 0 0 0 0 127 0" result="hardAlpha"/>
            <feOffset dy="4"/>
            <feGaussianBlur stdDeviation="6"/>
            <feComposite in2="hardAlpha" operator="out"/>
            <feColorMatrix type="matrix" values="0 0 0 0 0 0 0 0 0 0 0 0 0 0 0 0 0 0 0.05 0"/>
            <feBlend mode="normal" in2="BackgroundImageFix" result="effect1_dropShadow_259_637"/>
            <feBlend mode="normal" in="SourceGraphic" in2="effect1_dropShadow_259_637" result="shape"/>
            </filter>
            </defs>
            </svg>